<?xml version="1.0" encoding="UTF-8"?>
<!DOCTYPE svg PUBLIC "-//W3C//DTD SVG 1.1//EN" "http://www.w3.org/Graphics/SVG/1.1/DTD/svg11.dtd">
<svg xmlns="http://www.w3.org/2000/svg" version="1.1" width="600px" height="600px" style="shape-rendering:geometricPrecision; text-rendering:geometricPrecision; image-rendering:optimizeQuality; fill-rule:evenodd; clip-rule:evenodd" xmlns:xlink="http://www.w3.org/1999/xlink">
<g><path style="opacity:0.986" fill="#1e1e1e" d="M 352.5,-0.5 C 356.833,-0.5 361.167,-0.5 365.5,-0.5C 421.119,29.968 461.286,74.6347 486,133.5C 500.938,170.737 504.605,209.071 497,248.5C 492.04,265.112 480.873,272.612 463.5,271C 448.791,267.126 440.791,257.626 439.5,242.5C 445.776,211.606 442.942,181.606 431,152.5C 411.728,108.898 381.562,75.0648 340.5,51C 325.729,35.3863 326.063,20.053 341.5,5C 345.192,3.05781 348.858,1.22448 352.5,-0.5 Z"/></g>
<g><path style="opacity:0.987" fill="#1e1e1e" d="M 189.5,29.5 C 242.784,26.3218 292.784,37.4885 339.5,63C 367,79.8333 389.167,102 406,129.5C 410.268,155.146 399.435,167.979 373.5,168C 366.017,166.339 359.85,162.506 355,156.5C 331.358,122.738 299.191,101.571 258.5,93C 234.062,87.4654 209.396,86.1321 184.5,89C 172.853,90.9956 161.186,92.829 149.5,94.5C 127.946,91.4388 118.779,79.1055 122,57.5C 125.167,47.6667 131.667,41.1667 141.5,38C 157.438,33.9899 173.438,31.1566 189.5,29.5 Z"/></g>
<g><path style="opacity:0.986" fill="#1e1e1e" d="M -0.5,246.5 C -0.5,242.167 -0.5,237.833 -0.5,233.5C 35.3058,168.54 88.9725,125.374 160.5,104C 189.695,97.4773 219.028,96.8107 248.5,102C 265.112,106.96 272.612,118.127 271,135.5C 267.168,150.004 257.834,158.004 243,159.5C 211.939,153.213 181.772,156.046 152.5,168C 108.898,187.272 75.0648,217.438 51,258.5C 35.4892,273.126 20.1559,272.793 5,257.5C 2.588,254.01 0.754663,250.343 -0.5,246.5 Z"/></g>
<g><path style="opacity:0.986" fill="#1e1e1e" d="M 530.5,120.5 C 545.784,120.215 555.951,127.215 561,141.5C 577.245,206.96 570.578,269.96 541,330.5C 525.169,360.002 503.336,384.168 475.5,403C 459.528,411.272 446.028,408.439 435,394.5C 426.833,378.672 429.666,365.172 443.5,354C 468.367,337.111 486.201,314.611 497,286.5C 513.15,244.018 515.817,200.684 505,156.5C 502.83,136.85 511.33,124.85 530.5,120.5 Z"/></g>
<g><path style="opacity:0.986" fill="#1e1e1e" d="M 132.5,191.5 C 150.822,189.345 162.655,197.012 168,214.5C 169.329,222.848 167.662,230.515 163,237.5C 150.739,247.09 139.072,257.424 128,268.5C 103.875,299.184 90.5414,334.184 88,373.5C 86.4053,396.814 88.4053,419.814 94,442.5C 95.9113,463.431 86.4113,475.431 65.5,478.5C 53.2604,477.414 44.4271,471.414 39,460.5C 19.2409,385.292 29.5742,314.625 70,248.5C 86.6546,224.668 107.488,205.668 132.5,191.5 Z"/></g>
<g><path style="opacity:0.987" fill="#1e1e1e" d="M 246.5,599.5 C 242.167,599.5 237.833,599.5 233.5,599.5C 177.854,569.008 137.688,524.341 113,465.5C 97.9572,427.939 94.2905,389.273 102,349.5C 108.452,331.853 120.952,325.02 139.5,329C 152.142,333.81 158.808,342.977 159.5,356.5C 151.559,397.193 158.393,435.193 180,470.5C 193.212,493.051 210.045,512.551 230.5,529C 239.56,535.725 248.893,542.058 258.5,548C 273.298,563.586 272.965,578.919 257.5,594C 253.808,595.942 250.142,597.776 246.5,599.5 Z"/></g>
<g><path style="opacity:0.986" fill="#1e1e1e" d="M 599.5,352.5 C 599.5,356.833 599.5,361.167 599.5,365.5C 563.694,430.46 510.028,473.626 438.5,495C 409.305,501.523 379.972,502.189 350.5,497C 333.888,492.04 326.388,480.873 328,463.5C 331.832,448.996 341.166,440.996 356,439.5C 387.061,445.787 417.228,442.954 446.5,431C 490.102,411.728 523.935,381.562 548,340.5C 563.566,325.557 578.9,325.89 594,341.5C 596.412,344.99 598.245,348.657 599.5,352.5 Z"/></g>
<g><path style="opacity:0.987" fill="#1e1e1e" d="M 214.5,430.5 C 227.14,429.1 237.307,433.434 245,443.5C 265.133,472.609 292.3,492.109 326.5,502C 364.549,513.457 402.882,514.457 441.5,505C 462.971,502.638 475.304,512.138 478.5,533.5C 477.391,547.237 470.391,556.404 457.5,561C 388.21,578.154 322.21,569.821 259.5,536C 234.133,520.301 212.967,500.135 196,475.5C 188.572,461.269 190.405,448.436 201.5,437C 205.657,434.255 209.99,432.088 214.5,430.5 Z"/></g>
</svg>
