<svg width="131" height="48" viewBox="0 0 131 48" fill="none" xmlns="http://www.w3.org/2000/svg">
<g clip-path="url(#clip0_10_58)">
<path opacity="0.986" fill-rule="evenodd" clip-rule="evenodd" d="M28.2 -0.0400009C28.5466 -0.0400009 28.8933 -0.0400009 29.24 -0.0400009C33.6895 2.39744 36.9029 5.97078 38.88 10.68C40.075 13.659 40.3684 16.7257 39.76 19.88C39.3632 21.209 38.4698 21.809 37.08 21.68C35.9033 21.3701 35.2633 20.6101 35.16 19.4C35.6621 16.9285 35.4353 14.5285 34.48 12.2C32.9382 8.71184 30.5249 6.00518 27.24 4.08C26.0583 2.8309 26.085 1.60424 27.32 0.399999C27.6153 0.244624 27.9086 0.0979575 28.2 -0.0400009Z" fill="#1E1E1E"/>
<path opacity="0.987" fill-rule="evenodd" clip-rule="evenodd" d="M15.16 2.36C19.4227 2.10574 23.4227 2.99908 27.16 5.04C29.36 6.38666 31.1333 8.16 32.48 10.36C32.8214 12.4117 31.9548 13.4383 29.88 13.44C29.2813 13.3071 28.788 13.0005 28.4 12.52C26.5086 9.81904 23.9352 8.12568 20.68 7.44C18.7249 6.99723 16.7516 6.89057 14.76 7.12C13.8282 7.27965 12.8948 7.42632 11.96 7.56C10.2356 7.3151 9.50229 6.32844 9.75997 4.6C10.0133 3.81333 10.5333 3.29333 11.32 3.04C12.595 2.71919 13.875 2.49253 15.16 2.36Z" fill="#1E1E1E"/>
<path opacity="0.986" fill-rule="evenodd" clip-rule="evenodd" d="M-0.0400391 19.72C-0.0400391 19.3734 -0.0400391 19.0266 -0.0400391 18.68C2.82442 13.4832 7.11776 10.0299 12.84 8.32C15.1756 7.79818 17.5222 7.74486 19.88 8.16C21.2089 8.5568 21.8089 9.45016 21.68 10.84C21.3734 12.0003 20.6267 12.6403 19.44 12.76C16.9551 12.257 14.5417 12.4837 12.2 13.44C8.7118 14.9818 6.00514 17.395 4.07996 20.68C2.8391 21.8501 1.61243 21.8234 0.399961 20.6C0.207001 20.3208 0.060334 20.0274 -0.0400391 19.72Z" fill="#1E1E1E"/>
<path opacity="0.986" fill-rule="evenodd" clip-rule="evenodd" d="M42.44 9.64C43.6627 9.6172 44.4761 10.1772 44.88 11.32C46.1796 16.5568 45.6462 21.5968 43.28 26.44C42.0135 28.8002 40.2669 30.7334 38.04 32.24C36.7622 32.9018 35.6822 32.6751 34.8 31.56C34.1466 30.2938 34.3733 29.2138 35.48 28.32C37.4693 26.9689 38.8961 25.1689 39.76 22.92C41.052 19.5214 41.2653 16.0547 40.4 12.52C40.2264 10.948 40.9064 9.988 42.44 9.64Z" fill="#1E1E1E"/>
<path opacity="0.986" fill-rule="evenodd" clip-rule="evenodd" d="M10.6 15.32C12.0658 15.1476 13.0124 15.761 13.44 17.16C13.5463 17.8278 13.413 18.4412 13.04 19C12.0591 19.7672 11.1258 20.5939 10.24 21.48C8.31 23.9347 7.24331 26.7347 7.04 29.88C6.91242 31.7451 7.07242 33.5851 7.52 35.4C7.6729 37.0745 6.9129 38.0345 5.24 38.28C4.26083 38.1931 3.55417 37.7131 3.12 36.84C1.53927 30.8234 2.36593 25.17 5.6 19.88C6.93237 17.9734 8.59904 16.4534 10.6 15.32Z" fill="#1E1E1E"/>
<path opacity="0.987" fill-rule="evenodd" clip-rule="evenodd" d="M19.72 47.96C19.3734 47.96 19.0267 47.96 18.68 47.96C14.2284 45.5206 11.0151 41.9473 9.04004 37.24C7.83661 34.2351 7.54328 31.1418 8.16004 27.96C8.6762 26.5482 9.6762 26.0016 11.16 26.32C12.1714 26.7048 12.7047 27.4382 12.76 28.52C12.1248 31.7754 12.6715 34.8154 14.4 37.64C15.457 39.4441 16.8036 41.0041 18.44 42.32C19.1648 42.858 19.9115 43.3646 20.68 43.84C21.8639 45.0869 21.8372 46.3135 20.6 47.52C20.3047 47.6754 20.0114 47.8221 19.72 47.96Z" fill="#1E1E1E"/>
<path opacity="0.986" fill-rule="evenodd" clip-rule="evenodd" d="M47.96 28.2C47.96 28.5466 47.96 28.8934 47.96 29.24C45.0955 34.4368 40.8023 37.8901 35.08 39.6C32.7444 40.1218 30.3978 40.1751 28.04 39.76C26.7111 39.3632 26.1111 38.4698 26.24 37.08C26.5466 35.9197 27.2933 35.2797 28.48 35.16C30.9649 35.663 33.3783 35.4363 35.72 34.48C39.2082 32.9382 41.9148 30.525 43.84 27.24C45.0853 26.0446 46.312 26.0712 47.52 27.32C47.713 27.5992 47.8596 27.8926 47.96 28.2Z" fill="#1E1E1E"/>
<path opacity="0.987" fill-rule="evenodd" clip-rule="evenodd" d="M17.16 34.44C18.1712 34.328 18.9845 34.6747 19.6 35.48C21.2106 37.8087 23.384 39.3687 26.12 40.16C29.1639 41.0766 32.2305 41.1566 35.32 40.4C37.0377 40.211 38.0243 40.971 38.28 42.68C38.1913 43.779 37.6313 44.5123 36.6 44.88C31.0568 46.2523 25.7768 45.5857 20.76 42.88C18.7306 41.6241 17.0373 40.0108 15.68 38.04C15.0857 36.9015 15.2324 35.8749 16.12 34.96C16.4525 34.7404 16.7992 34.567 17.16 34.44Z" fill="#1E1E1E"/>
</g>
<path d="M64.5227 36H60.7955L69.1705 12.7273H73.2273L81.6023 36H77.875L71.2955 16.9545H71.1136L64.5227 36ZM65.1477 26.8864H77.2386V29.8409H65.1477V26.8864ZM84.8466 36V18.5455H88.2443V36H84.8466ZM86.5625 15.8523C85.9716 15.8523 85.464 15.6553 85.0398 15.2614C84.6231 14.8598 84.4148 14.3826 84.4148 13.8295C84.4148 13.2689 84.6231 12.7917 85.0398 12.3977C85.464 11.9962 85.9716 11.7955 86.5625 11.7955C87.1534 11.7955 87.6572 11.9962 88.0739 12.3977C88.4981 12.7917 88.7102 13.2689 88.7102 13.8295C88.7102 14.3826 88.4981 14.8598 88.0739 15.2614C87.6572 15.6553 87.1534 15.8523 86.5625 15.8523ZM99.3494 36.3409C97.9403 36.3409 96.6828 35.9811 95.5767 35.2614C94.4782 34.5341 93.6146 33.5 92.9858 32.1591C92.3646 30.8106 92.054 29.1932 92.054 27.3068C92.054 25.4205 92.3684 23.8068 92.9972 22.4659C93.6335 21.125 94.5047 20.0985 95.6108 19.3864C96.7169 18.6742 97.9706 18.3182 99.3722 18.3182C100.455 18.3182 101.327 18.5 101.986 18.8636C102.652 19.2197 103.168 19.6364 103.531 20.1136C103.902 20.5909 104.19 21.0114 104.395 21.375H104.599V12.7273H107.997V36H104.679V33.2841H104.395C104.19 33.6553 103.895 34.0795 103.509 34.5568C103.13 35.0341 102.607 35.4508 101.94 35.8068C101.274 36.1629 100.41 36.3409 99.3494 36.3409ZM100.099 33.4432C101.077 33.4432 101.902 33.1856 102.577 32.6705C103.259 32.1477 103.774 31.4242 104.122 30.5C104.478 29.5758 104.656 28.5 104.656 27.2727C104.656 26.0606 104.482 25 104.134 24.0909C103.785 23.1818 103.274 22.4735 102.599 21.9659C101.925 21.4583 101.092 21.2045 100.099 21.2045C99.0767 21.2045 98.2244 21.4697 97.5426 22C96.8608 22.5303 96.3456 23.2538 95.9972 24.1705C95.6563 25.0871 95.4858 26.1212 95.4858 27.2727C95.4858 28.4394 95.66 29.4886 96.0085 30.4205C96.357 31.3523 96.8722 32.0909 97.554 32.6364C98.2434 33.1742 99.0919 33.4432 100.099 33.4432ZM120.369 36.3523C118.65 36.3523 117.169 35.9848 115.926 35.25C114.691 34.5076 113.737 33.4659 113.062 32.125C112.396 30.7765 112.062 29.197 112.062 27.3864C112.062 25.5985 112.396 24.0227 113.062 22.6591C113.737 21.2955 114.676 20.2311 115.881 19.4659C117.093 18.7008 118.509 18.3182 120.131 18.3182C121.116 18.3182 122.07 18.4811 122.994 18.8068C123.919 19.1326 124.748 19.6439 125.483 20.3409C126.218 21.0379 126.797 21.9432 127.222 23.0568C127.646 24.1629 127.858 25.5076 127.858 27.0909V28.2955H113.983V25.75H124.528C124.528 24.8561 124.347 24.0644 123.983 23.375C123.619 22.678 123.108 22.1288 122.449 21.7273C121.797 21.3258 121.032 21.125 120.153 21.125C119.199 21.125 118.366 21.3598 117.653 21.8295C116.949 22.2917 116.403 22.8977 116.017 23.6477C115.638 24.3902 115.449 25.197 115.449 26.0682V28.0568C115.449 29.2235 115.653 30.2159 116.062 31.0341C116.479 31.8523 117.059 32.4773 117.801 32.9091C118.544 33.3333 119.411 33.5455 120.403 33.5455C121.047 33.5455 121.634 33.4545 122.165 33.2727C122.695 33.0833 123.153 32.803 123.54 32.4318C123.926 32.0606 124.222 31.6023 124.426 31.0568L127.642 31.6364C127.384 32.5833 126.922 33.4129 126.256 34.125C125.597 34.8295 124.767 35.3788 123.767 35.7727C122.775 36.1591 121.642 36.3523 120.369 36.3523Z" fill="#1E1E1E"/>
<defs>
<clipPath id="clip0_10_58">
<rect width="48" height="48" fill="white"/>
</clipPath>
</defs>
</svg>
