<svg width="110" height="32" viewBox="0 0 110 32" fill="none" xmlns="http://www.w3.org/2000/svg">
<g clip-path="url(#clip0_29_22)">
<path opacity="0.986" fill-rule="evenodd" clip-rule="evenodd" d="M18.7999 -0.0266647C19.031 -0.0266647 19.2622 -0.0266647 19.4933 -0.0266647C22.4596 1.5983 24.6019 3.98052 25.9199 7.12C26.7166 9.10598 26.9122 11.1505 26.5066 13.2533C26.2421 14.1393 25.6465 14.5393 24.7199 14.4533C23.9355 14.2467 23.5088 13.7401 23.4399 12.9333C23.7747 11.2857 23.6235 9.68566 22.9866 8.13334C21.9588 5.8079 20.3499 4.00346 18.1599 2.72C17.3722 1.88727 17.39 1.0695 18.2133 0.266669C18.4102 0.163085 18.6057 0.0653075 18.7999 -0.0266647Z" fill="#1E1E1E"/>
<path opacity="0.987" fill-rule="evenodd" clip-rule="evenodd" d="M10.1066 1.57333C12.9485 1.40383 15.6151 1.99939 18.1066 3.36C19.5733 4.25778 20.7555 5.44 21.6533 6.90667C21.8809 8.27445 21.3032 8.95888 19.92 8.96C19.5209 8.87141 19.192 8.66699 18.9333 8.34667C17.6724 6.54603 15.9568 5.41712 13.7866 4.96C12.4833 4.66482 11.1678 4.59371 9.83998 4.74667C9.2188 4.8531 8.59656 4.95088 7.97331 5.04C6.82376 4.87674 6.33486 4.21896 6.50664 3.06667C6.67555 2.54222 7.02222 2.19556 7.54664 2.02667C8.39667 1.81279 9.25 1.66168 10.1066 1.57333Z" fill="#1E1E1E"/>
<path opacity="0.986" fill-rule="evenodd" clip-rule="evenodd" d="M-0.0266113 13.1467C-0.0266113 12.9156 -0.0266113 12.6844 -0.0266113 12.4533C1.88303 8.9888 4.74526 6.68661 8.56006 5.54667C10.1171 5.19879 11.6815 5.16324 13.2534 5.44C14.1394 5.70453 14.5394 6.30011 14.4534 7.22667C14.249 8.00021 13.7512 8.42688 12.9601 8.50667C11.3035 8.17136 9.69456 8.32245 8.13339 8.96C5.80795 9.98784 4.00351 11.5967 2.72006 13.7867C1.89281 14.5667 1.07504 14.549 0.266722 13.7333C0.138082 13.5472 0.040304 13.3516 -0.0266113 13.1467Z" fill="#1E1E1E"/>
<path opacity="0.986" fill-rule="evenodd" clip-rule="evenodd" d="M28.2934 6.42667C29.1085 6.41147 29.6508 6.7848 29.9201 7.54667C30.7865 11.0379 30.4309 14.3979 28.8534 17.6267C28.0091 19.2001 26.8446 20.489 25.3601 21.4933C24.5082 21.9345 23.7882 21.7834 23.2001 21.04C22.7645 20.1958 22.9156 19.4758 23.6534 18.88C24.9796 17.9793 25.9308 16.7793 26.5067 15.28C27.3681 13.0143 27.5103 10.7032 26.9334 8.34667C26.8177 7.29867 27.271 6.65867 28.2934 6.42667Z" fill="#1E1E1E"/>
<path opacity="0.986" fill-rule="evenodd" clip-rule="evenodd" d="M7.06667 10.2133C8.04384 10.0984 8.67493 10.5073 8.96 11.44C9.03088 11.8852 8.94197 12.2941 8.69333 12.6667C8.03941 13.1781 7.41717 13.7293 6.82667 14.32C5.54 15.9565 4.82887 17.8231 4.69333 19.92C4.60828 21.1634 4.71495 22.3901 5.01333 23.6C5.11527 24.7163 4.6086 25.3563 3.49333 25.52C2.84055 25.4621 2.36944 25.1421 2.08 24.56C1.02618 20.5489 1.57729 16.78 3.73333 13.2533C4.62158 11.9823 5.73269 10.969 7.06667 10.2133Z" fill="#1E1E1E"/>
<path opacity="0.987" fill-rule="evenodd" clip-rule="evenodd" d="M13.1466 31.9733C12.9155 31.9733 12.6844 31.9733 12.4533 31.9733C9.48549 30.3471 7.3433 27.9649 6.02661 24.8267C5.22433 22.8234 5.02877 20.7612 5.43994 18.64C5.78405 17.6988 6.45072 17.3344 7.43994 17.5467C8.11418 17.8032 8.4697 18.2921 8.50661 19.0133C8.08309 21.1836 8.44757 23.2103 9.59994 25.0933C10.3046 26.2961 11.2023 27.3361 12.2933 28.2133C12.7765 28.572 13.2742 28.9098 13.7866 29.2267C14.5758 30.0579 14.5581 30.8757 13.7333 31.68C13.5364 31.7836 13.3408 31.8814 13.1466 31.9733Z" fill="#1E1E1E"/>
<path opacity="0.986" fill-rule="evenodd" clip-rule="evenodd" d="M31.9733 18.8C31.9733 19.0311 31.9733 19.2622 31.9733 19.4933C30.0637 22.9579 27.2015 25.2601 23.3867 26.4C21.8296 26.7479 20.2652 26.7834 18.6933 26.5067C17.8074 26.2421 17.4074 25.6466 17.4933 24.72C17.6977 23.9465 18.1955 23.5198 18.9867 23.44C20.6433 23.7753 22.2522 23.6242 23.8133 22.9867C26.1388 21.9588 27.9432 20.35 29.2267 18.16C30.0569 17.363 30.8747 17.3808 31.68 18.2133C31.8086 18.3995 31.9064 18.595 31.9733 18.8Z" fill="#1E1E1E"/>
<path opacity="0.987" fill-rule="evenodd" clip-rule="evenodd" d="M11.4399 22.96C12.1141 22.8853 12.6563 23.1165 13.0666 23.6533C14.1404 25.2058 15.5893 26.2458 17.4133 26.7733C19.4426 27.3844 21.487 27.4377 23.5466 26.9333C24.6917 26.8074 25.3495 27.314 25.5199 28.4533C25.4608 29.186 25.0875 29.6749 24.3999 29.92C20.7045 30.8349 17.1845 30.3904 13.8399 28.5867C12.487 27.7494 11.3582 26.6739 10.4533 25.36C10.0571 24.601 10.1549 23.9166 10.7466 23.3067C10.9683 23.1603 11.1994 23.0447 11.4399 22.96Z" fill="#1E1E1E"/>
</g>
<path d="M46.3636 28.3864C45.2576 28.3864 44.2576 28.1818 43.3636 27.7727C42.4697 27.3561 41.7614 26.7538 41.2386 25.9659C40.7235 25.178 40.4659 24.2121 40.4659 23.0682C40.4659 22.0833 40.6553 21.2727 41.0341 20.6364C41.4129 20 41.9242 19.4962 42.5682 19.125C43.2121 18.7538 43.9318 18.4735 44.7273 18.2841C45.5227 18.0947 46.3333 17.9508 47.1591 17.8523C48.2045 17.7311 49.053 17.6326 49.7045 17.5568C50.3561 17.4735 50.8295 17.3409 51.125 17.1591C51.4205 16.9773 51.5682 16.6818 51.5682 16.2727V16.1932C51.5682 15.2008 51.2879 14.4318 50.7273 13.8864C50.1742 13.3409 49.3485 13.0682 48.25 13.0682C47.1061 13.0682 46.2045 13.322 45.5455 13.8295C44.8939 14.3295 44.4432 14.8864 44.1932 15.5L41 14.7727C41.3788 13.7121 41.9318 12.8561 42.6591 12.2045C43.3939 11.5455 44.2386 11.0682 45.1932 10.7727C46.1477 10.4697 47.1515 10.3182 48.2045 10.3182C48.9015 10.3182 49.6402 10.4015 50.4205 10.5682C51.2083 10.7273 51.9432 11.0227 52.625 11.4545C53.3144 11.8864 53.8788 12.5038 54.3182 13.3068C54.7576 14.1023 54.9773 15.1364 54.9773 16.4091V28H51.6591V25.6136H51.5227C51.303 26.053 50.9735 26.4848 50.5341 26.9091C50.0947 27.3333 49.5303 27.6856 48.8409 27.9659C48.1515 28.2462 47.3258 28.3864 46.3636 28.3864ZM47.1023 25.6591C48.0417 25.6591 48.8447 25.4735 49.5114 25.1023C50.1856 24.7311 50.697 24.2462 51.0455 23.6477C51.4015 23.0417 51.5795 22.3939 51.5795 21.7045V19.4545C51.4583 19.5758 51.2235 19.6894 50.875 19.7955C50.5341 19.8939 50.1439 19.9811 49.7045 20.0568C49.2652 20.125 48.8371 20.1894 48.4205 20.25C48.0038 20.303 47.6553 20.3485 47.375 20.3864C46.7159 20.4697 46.1136 20.6098 45.5682 20.8068C45.0303 21.0038 44.5985 21.2879 44.2727 21.6591C43.9545 22.0227 43.7955 22.5076 43.7955 23.1136C43.7955 23.9545 44.1061 24.5909 44.7273 25.0227C45.3485 25.447 46.1402 25.6591 47.1023 25.6591ZM59.5028 28V10.5455H62.9006V28H59.5028ZM61.2188 7.85227C60.6278 7.85227 60.1203 7.6553 59.696 7.26136C59.2794 6.85985 59.071 6.38257 59.071 5.82954C59.071 5.26894 59.2794 4.79167 59.696 4.39773C60.1203 3.99621 60.6278 3.79545 61.2188 3.79545C61.8097 3.79545 62.3134 3.99621 62.7301 4.39773C63.1544 4.79167 63.3665 5.26894 63.3665 5.82954C63.3665 6.38257 63.1544 6.85985 62.7301 7.26136C62.3134 7.6553 61.8097 7.85227 61.2188 7.85227ZM74.0057 28.3409C72.5966 28.3409 71.339 27.9811 70.233 27.2614C69.1345 26.5341 68.2708 25.5 67.642 24.1591C67.0208 22.8106 66.7102 21.1932 66.7102 19.3068C66.7102 17.4205 67.0246 15.8068 67.6534 14.4659C68.2898 13.125 69.161 12.0985 70.267 11.3864C71.3731 10.6742 72.6269 10.3182 74.0284 10.3182C75.1117 10.3182 75.983 10.5 76.642 10.8636C77.3087 11.2197 77.8239 11.6364 78.1875 12.1136C78.5587 12.5909 78.8466 13.0114 79.0511 13.375H79.2557V4.72727H82.6534V28H79.3352V25.2841H79.0511C78.8466 25.6553 78.5511 26.0795 78.1648 26.5568C77.786 27.0341 77.2633 27.4508 76.5966 27.8068C75.9299 28.1629 75.0663 28.3409 74.0057 28.3409ZM74.7557 25.4432C75.733 25.4432 76.5587 25.1856 77.233 24.6705C77.9148 24.1477 78.4299 23.4242 78.7784 22.5C79.1345 21.5758 79.3125 20.5 79.3125 19.2727C79.3125 18.0606 79.1383 17 78.7898 16.0909C78.4413 15.1818 77.9299 14.4735 77.2557 13.9659C76.5814 13.4583 75.7481 13.2045 74.7557 13.2045C73.733 13.2045 72.8807 13.4697 72.1989 14C71.517 14.5303 71.0019 15.2538 70.6534 16.1705C70.3125 17.0871 70.142 18.1212 70.142 19.2727C70.142 20.4394 70.3163 21.4886 70.6648 22.4205C71.0133 23.3523 71.5284 24.0909 72.2102 24.6364C72.8996 25.1742 73.7481 25.4432 74.7557 25.4432ZM95.0256 28.3523C93.3059 28.3523 91.8248 27.9848 90.5824 27.25C89.3475 26.5076 88.393 25.4659 87.7188 24.125C87.0521 22.7765 86.7188 21.197 86.7188 19.3864C86.7188 17.5985 87.0521 16.0227 87.7188 14.6591C88.393 13.2955 89.3324 12.2311 90.5369 11.4659C91.7491 10.7008 93.1657 10.3182 94.7869 10.3182C95.7718 10.3182 96.7263 10.4811 97.6506 10.8068C98.5748 11.1326 99.4044 11.6439 100.139 12.3409C100.874 13.0379 101.454 13.9432 101.878 15.0568C102.302 16.1629 102.514 17.5076 102.514 19.0909V20.2955H88.6392V17.75H99.1847C99.1847 16.8561 99.0028 16.0644 98.6392 15.375C98.2756 14.678 97.7642 14.1288 97.1051 13.7273C96.4536 13.3258 95.6884 13.125 94.8097 13.125C93.8551 13.125 93.0218 13.3598 92.3097 13.8295C91.6051 14.2917 91.0597 14.8977 90.6733 15.6477C90.2945 16.3902 90.1051 17.197 90.1051 18.0682V20.0568C90.1051 21.2235 90.3097 22.2159 90.7188 23.0341C91.1354 23.8523 91.715 24.4773 92.4574 24.9091C93.1998 25.3333 94.0672 25.5455 95.0597 25.5455C95.7036 25.5455 96.2907 25.4545 96.821 25.2727C97.3513 25.0833 97.8097 24.803 98.196 24.4318C98.5824 24.0606 98.8778 23.6023 99.0824 23.0568L102.298 23.6364C102.041 24.5833 101.579 25.4129 100.912 26.125C100.253 26.8295 99.4233 27.3788 98.4233 27.7727C97.4309 28.1591 96.2983 28.3523 95.0256 28.3523Z" fill="#1E1E1E"/>
<defs>
<clipPath id="clip0_29_22">
<rect width="32" height="32" fill="white"/>
</clipPath>
</defs>
</svg>
