<svg width="16" height="16" viewBox="0 0 16 16" fill="none" xmlns="http://www.w3.org/2000/svg">
    <path d="M6.5 3H5C3.89543 3 3 3.89543 3 5V11C3 12.1046 3.89543 13 5 13H11C12.1046 13 13 12.1046 13 11V9.25"
        stroke="white" stroke-width="1.5" stroke-linecap="round" />
    <path
        d="M7.46967 7.46967C7.17678 7.76256 7.17678 8.23744 7.46967 8.53033C7.76256 8.82322 8.23744 8.82322 8.53033 8.53033L7.46967 7.46967ZM13.5303 3.53033C13.8232 3.23744 13.8232 2.76256 13.5303 2.46967C13.2374 2.17678 12.7626 2.17678 12.4697 2.46967L13.5303 3.53033ZM8.53033 8.53033L13.5303 3.53033L12.4697 2.46967L7.46967 7.46967L8.53033 8.53033Z"
        fill="white" />
    <path d="M13 6V3H10" stroke="white" stroke-width="1.5" stroke-linecap="round" stroke-linejoin="round" />
</svg>